<?xml version="1.0" encoding="utf-8"?>
<!-- Generator: Adobe Illustrator 24.0.1, SVG Export Plug-In . SVG Version: 6.00 Build 0)  -->
<svg version="1.1" id="Capa_1" xmlns="http://www.w3.org/2000/svg" xmlns:xlink="http://www.w3.org/1999/xlink" x="0px" y="0px"
	 viewBox="0 0 8192 1307.2" style="enable-background:new 0 0 8192 1307.2;" xml:space="preserve">
<style type="text/css">
	.st0{fill:#AFBFAC;}
	.st1{fill:#E8DBD1;}
	.st2{fill:url(#SVGID_1_);}
	.st3{fill:none;stroke:#D07A6F;stroke-width:8.5188;stroke-linecap:round;stroke-miterlimit:10;stroke-dasharray:8.5188,29.8157;}
</style>
<g>
	<g>
		<path class="st0" d="M5729.8,409.8c-1443.5,444.2-3103.6,511-4559.1,55.3C853.6,365.8,420.7,148.6,0.1,96.1l0,1157.8
			c1571-417.1,4013.6-171,4013.6-171c2546.5,422.6,4048-66.2,4178.3-116.9V485.8C7218.1,129.7,6849.3,65.3,5729.8,409.8z"/>
	</g>
	<path class="st1" d="M7802.6,319.7L7325.9,191l-224.3-37.9l-488.6-38L6324.4,191L6001,219.9l-541.3,215.9l-546.2,171.6L4492.4,714
		l-832.6,66.2l-795.4,11.3L2116,675.7l-831.8-264.3l-795.4-259L0.2,63.1l0,483.8c1448.7-204.5,2062,1082.8,4583.6,461.9
		C6169.6,618.3,7875.2,799.6,8192,916V478.7L7802.6,319.7z"/>
	<linearGradient id="SVGID_1_" gradientUnits="userSpaceOnUse" x1="0.2178" y1="443.7153" x2="8191.999" y2="443.7153">
		<stop  offset="0" style="stop-color:#95591E"/>
		<stop  offset="1" style="stop-color:#F0C982"/>
	</linearGradient>
	<path class="st2" d="M8192,440.8c-518.7-227.2-1119.3-626.6-2443.8-138.7c-1422,523.8-3016.4,663.3-4432.4,65.1
		C962.5,218,461.6,79,0.2,18.4v78.5c422.1,68.4,857.4,190.9,1175.7,321.5c1453,596,2929.3,589,4386.2,48.9
		C6879.6-21.1,7670.9,312.8,8192,529.8V440.8z"/>
	<path class="st3" d="M8165.8,803.9c-1420.9-401.3-4485.2,294.4-4485.2,294.4C1807,1576,0.9,798.5,0.9,798.5"/>
</g>
</svg>
